<svg width="275" height="76" viewBox="0 0 275 76" fill="none" xmlns="http://www.w3.org/2000/svg">
<rect width="274.014" height="75.2414" transform="translate(0.798096 0.292969)" fill="#F8F8F8"/>
<path d="M37.4906 65.0181C37.6943 65.0181 37.847 65.0819 37.9488 65.2096C38.0506 65.3118 38.1015 65.4395 38.1015 65.5927C38.1015 65.7204 38.0379 65.8481 37.9106 65.9758C37.8088 66.0779 37.6688 66.129 37.4906 66.129H35.4671C34.8562 66.129 34.2963 66.129 33.7872 66.129C33.2781 66.1545 32.7563 66.1034 32.2218 65.9758C31.7128 65.8481 31.1782 65.6182 30.6183 65.2862C30.0583 64.9287 29.422 64.3924 28.7093 63.6774C28.6075 63.6008 28.5056 63.5114 28.4038 63.4092C28.302 63.3326 28.1875 63.2305 28.0602 63.1028C27.933 62.9751 27.793 62.8346 27.6402 62.6814C27.3603 63.1666 27.0166 63.6391 26.6094 64.0987C26.2021 64.5329 25.744 64.9287 25.2349 65.2862C24.7513 65.6182 24.2168 65.8864 23.6314 66.0907C23.0459 66.295 22.4478 66.3971 21.8369 66.3971C20.8697 66.3971 19.9279 66.2694 19.0116 66.0141C18.0953 65.7587 17.2808 65.3629 16.5681 64.8266C15.8808 64.2647 15.3209 63.5752 14.8882 62.758C14.4555 61.9153 14.2391 60.9193 14.2391 59.7701C14.2391 58.9274 14.4173 58.1613 14.7736 57.4718C15.1554 56.7567 15.6136 56.1183 16.1481 55.5564C16.6826 54.9691 17.2553 54.4583 17.8662 54.0242C18.5025 53.5901 19.0752 53.2325 19.5843 52.9516C18.8461 51.8024 18.248 50.666 17.7898 49.5424C17.3571 48.3932 17.1408 47.3206 17.1408 46.3246C17.1408 44.3838 17.6753 42.8132 18.7443 41.613C19.8134 40.4127 21.4042 39.7615 23.5168 39.6593C25.2985 39.6593 26.7239 40.0935 27.793 40.9618C28.8874 41.8045 29.4347 43.1708 29.4347 45.0605C29.4347 45.9288 29.2565 46.7077 28.9002 47.3972C28.5438 48.0867 28.0857 48.6996 27.5257 49.2359C26.9657 49.7722 26.3294 50.2574 25.6167 50.6916C24.9295 51.1002 24.2422 51.4832 23.555 51.8407C24.2931 53.041 25.1076 54.2157 25.9985 55.3649C26.9148 56.5141 27.8566 57.6122 28.8238 58.6593C29.2056 57.4335 29.7274 56.3098 30.3892 55.2883C31.051 54.2413 31.84 53.4241 32.7563 52.8367C33.24 52.5303 33.749 52.3004 34.2835 52.1472C34.818 51.9684 35.3271 51.9046 35.8107 51.9557C36.2943 51.9812 36.7143 52.1344 37.0707 52.4153C37.427 52.6962 37.6688 53.1176 37.7961 53.6794C37.8979 54.088 37.8597 54.4839 37.6815 54.8669C37.5288 55.2245 37.2616 55.5054 36.8798 55.7097C36.5234 55.8884 36.078 55.965 35.5435 55.9395C35.0089 55.8884 34.4235 55.6458 33.7872 55.2117C33.3545 54.9563 32.9091 54.8797 32.4509 54.9819C32.0182 55.084 31.5982 55.3266 31.191 55.7097C30.8092 56.0927 30.4401 56.5779 30.0838 57.1653C29.7274 57.7271 29.4347 58.3528 29.2056 59.0423C30.0201 59.9106 30.8346 60.715 31.6491 61.4556C32.4636 62.1707 33.2272 62.7963 33.9399 63.3326C34.6781 63.8689 35.3526 64.2903 35.9634 64.5967C36.5743 64.8776 37.0834 65.0181 37.4906 65.0181ZM22.3332 65.5544C22.7914 65.5544 23.2496 65.465 23.7077 65.2862C24.1659 65.1075 24.6113 64.8649 25.044 64.5584C25.4767 64.252 25.8712 63.9072 26.2276 63.5242C26.6094 63.1156 26.9403 62.6814 27.2203 62.2217C26.7621 61.7876 26.2403 61.2641 25.6549 60.6512C25.0695 60.0383 24.4586 59.3615 23.8223 58.6209C23.2114 57.8804 22.575 57.1015 21.9133 56.2843C21.2769 55.4671 20.6788 54.6243 20.1188 53.7561C19.2279 54.4711 18.6171 55.2883 18.2862 56.2077C17.9553 57.1015 17.7898 58.0847 17.7898 59.1572C17.7898 60.332 17.8917 61.3279 18.0953 62.1451C18.2989 62.9368 18.5916 63.588 18.9734 64.0987C19.3807 64.6095 19.8643 64.9798 20.4242 65.2096C20.9842 65.4395 21.6205 65.5544 22.3332 65.5544ZM23.5168 40.3489C22.855 40.3489 22.3332 40.451 21.9514 40.6553C21.5696 40.8341 21.2769 41.0894 21.0733 41.4214C20.8951 41.7534 20.7806 42.1493 20.7297 42.6089C20.6788 43.0431 20.6533 43.5155 20.6533 44.0263C20.6533 45.0222 20.857 46.1203 21.2642 47.3206C21.6969 48.4953 22.2823 49.7211 23.0205 50.998C23.4532 50.6916 23.8732 50.3468 24.2804 49.9637C24.6877 49.5551 25.044 49.0827 25.3494 48.5464C25.6549 47.9846 25.8967 47.3589 26.0749 46.6694C26.253 45.9543 26.3421 45.1371 26.3421 44.2178C26.3421 42.8643 26.113 41.8811 25.6549 41.2682C25.1967 40.6553 24.484 40.3489 23.5168 40.3489Z" fill="#1A1A1A"/>
<path d="M10.0998 3.04542C13.3576 3.04542 16.1724 3.66185 18.5442 4.89472C20.9447 6.09891 22.7736 7.83353 24.031 10.0986C25.3169 12.3636 25.9599 15.03 25.9599 18.0979C25.9599 21.1657 25.3169 23.8321 24.031 26.0972C22.7736 28.3335 20.9447 30.0538 18.5442 31.258C16.1724 32.4335 13.3576 33.0213 10.0998 33.0213H0.798096V3.04542H10.0998ZM10.0998 29.7958C13.9577 29.7958 16.9011 28.7779 18.93 26.7423C20.959 24.6779 21.9734 21.7965 21.9734 18.0979C21.9734 14.3706 20.9447 11.4605 18.8872 9.36745C16.8582 7.27444 13.9291 6.22794 10.0998 6.22794H4.69882V29.7958H10.0998Z" fill="#1A1A1A"/>
<path d="M52.5376 20.3342C52.5376 21.0797 52.4947 21.8681 52.409 22.6996H33.6341C33.777 25.022 34.5628 26.8426 35.9917 28.1615C37.4491 29.4517 39.2065 30.0968 41.2641 30.0968C42.9501 30.0968 44.3503 29.7098 45.4648 28.9356C46.6079 28.1328 47.408 27.072 47.8653 25.7531H52.0661C51.4374 28.0181 50.18 29.8675 48.2939 31.301C46.4079 32.7059 44.0646 33.4084 41.2641 33.4084C39.0351 33.4084 37.0347 32.9066 35.2629 31.9031C33.5198 30.8996 32.1481 29.4804 31.1479 27.6454C30.1477 25.7818 29.6476 23.6314 29.6476 21.1944C29.6476 18.7573 30.1334 16.6213 31.105 14.7863C32.0766 12.9514 33.434 11.5465 35.1772 10.5716C36.949 9.56815 38.9779 9.0664 41.2641 9.0664C43.493 9.0664 45.4648 9.55381 47.1794 10.5286C48.894 11.5035 50.2086 12.851 51.123 14.5713C52.0661 16.2629 52.5376 18.1839 52.5376 20.3342ZM48.5082 19.5171C48.5082 18.0262 48.1796 16.7503 47.5224 15.6895C46.8651 14.6 45.9649 13.7828 44.8219 13.2381C43.7074 12.6646 42.4643 12.3779 41.0926 12.3779C39.1208 12.3779 37.4348 13.0087 36.0345 14.2702C34.6628 15.5318 33.877 17.2807 33.6769 19.5171H48.5082Z" fill="#1A1A1A"/>
<path d="M66.0022 33.4084C64.2019 33.4084 62.5873 33.1073 61.1585 32.5052C59.7296 31.8744 58.6008 31.0143 57.7721 29.9248C56.9434 28.8066 56.4862 27.5307 56.4004 26.0972H60.4298C60.5441 27.2727 61.087 28.2332 62.0586 28.9786C63.0588 29.7241 64.3591 30.0968 65.9594 30.0968C67.4453 30.0968 68.617 29.7671 69.4743 29.1077C70.3316 28.4482 70.7602 27.6167 70.7602 26.6133C70.7602 25.5811 70.303 24.8213 69.3886 24.3339C68.4741 23.8178 67.0596 23.316 65.1449 22.8286C63.4017 22.3699 61.9729 21.9112 60.8584 21.4524C59.7725 20.965 58.8295 20.2626 58.0293 19.3451C57.2577 18.3989 56.872 17.166 56.872 15.6465C56.872 14.4423 57.2292 13.3384 57.9436 12.3349C58.658 11.3314 59.6725 10.543 60.987 9.96954C62.3015 9.36745 63.8018 9.0664 65.4878 9.0664C68.0883 9.0664 70.1887 9.72584 71.789 11.0447C73.3893 12.3636 74.2466 14.1699 74.3609 16.4636H70.4602C70.3745 15.2307 69.8744 14.2416 68.9599 13.4961C68.074 12.7507 66.8738 12.3779 65.3592 12.3779C63.959 12.3779 62.8445 12.679 62.0158 13.2811C61.187 13.8832 60.7727 14.6716 60.7727 15.6465C60.7727 16.4206 61.0156 17.0657 61.5014 17.5818C62.0158 18.0692 62.6445 18.4706 63.3874 18.786C64.159 19.0727 65.2164 19.4024 66.5595 19.7751C68.2455 20.2339 69.6172 20.6926 70.6745 21.1514C71.7319 21.5814 72.632 22.2409 73.375 23.1297C74.1466 24.0185 74.5467 25.1797 74.5752 26.6133C74.5752 27.9035 74.218 29.0647 73.5036 30.0968C72.7892 31.129 71.7747 31.9461 70.4602 32.5482C69.1742 33.1216 67.6882 33.4084 66.0022 33.4084Z" fill="#1A1A1A"/>
<path d="M82.0964 5.62584C81.3534 5.62584 80.7247 5.36779 80.2103 4.85171C79.6959 4.33563 79.4387 3.70486 79.4387 2.9594C79.4387 2.21395 79.6959 1.58318 80.2103 1.06709C80.7247 0.551011 81.3534 0.292969 82.0964 0.292969C82.8108 0.292969 83.4109 0.551011 83.8967 1.06709C84.4111 1.58318 84.6683 2.21395 84.6683 2.9594C84.6683 3.70486 84.4111 4.33563 83.8967 4.85171C83.4109 5.36779 82.8108 5.62584 82.0964 5.62584ZM83.9824 9.45346V33.0213H80.0817V9.45346H83.9824Z" fill="#1A1A1A"/>
<path d="M100.318 9.0664C102.347 9.0664 104.119 9.5108 105.633 10.3996C107.176 11.2884 108.32 12.4066 109.063 13.7542V9.45346H113.006V33.5374C113.006 35.6877 112.549 37.5944 111.634 39.2573C110.72 40.9489 109.405 42.2678 107.691 43.214C106.005 44.1601 104.033 44.6332 101.775 44.6332C98.6892 44.6332 96.1173 43.9021 94.0597 42.4398C92.0022 40.9776 90.7877 38.9849 90.4162 36.4619H94.2741C94.7027 37.8954 95.5886 39.0423 96.9317 39.9024C98.2748 40.7912 99.8894 41.2356 101.775 41.2356C103.919 41.2356 105.662 40.5619 107.005 39.2143C108.377 37.8668 109.063 35.9744 109.063 33.5374V28.5916C108.291 29.9678 107.148 31.1147 105.633 32.0321C104.119 32.9496 102.347 33.4084 100.318 33.4084C98.2319 33.4084 96.3316 32.8923 94.617 31.8601C92.931 30.8279 91.6022 29.38 90.6305 27.5164C89.6589 25.6528 89.1731 23.5311 89.1731 21.1514C89.1731 18.743 89.6589 16.6356 90.6305 14.8293C91.6022 12.9944 92.931 11.5751 94.617 10.5716C96.3316 9.56815 98.2319 9.0664 100.318 9.0664ZM109.063 21.1944C109.063 19.4167 108.705 17.8685 107.991 16.5496C107.276 15.2307 106.305 14.2272 105.076 13.5391C103.876 12.8223 102.547 12.4639 101.09 12.4639C99.6322 12.4639 98.3034 12.808 97.1032 13.4961C95.9029 14.1842 94.9456 15.1877 94.2312 16.5066C93.5168 17.8255 93.1596 19.3737 93.1596 21.1514C93.1596 22.9577 93.5168 24.5346 94.2312 25.8821C94.9456 27.201 95.9029 28.2188 97.1032 28.9356C98.3034 29.6237 99.6322 29.9678 101.09 29.9678C102.547 29.9678 103.876 29.6237 105.076 28.9356C106.305 28.2188 107.276 27.201 107.991 25.8821C108.705 24.5346 109.063 22.972 109.063 21.1944Z" fill="#1A1A1A"/>
<path d="M131.043 9.02339C133.901 9.02339 136.215 9.89787 137.987 11.6468C139.759 13.3671 140.645 15.8615 140.645 19.13V33.0213H136.787V19.6891C136.787 17.3381 136.201 15.5461 135.029 14.3132C133.858 13.0517 132.257 12.4209 130.228 12.4209C128.171 12.4209 126.528 13.066 125.299 14.3563C124.099 15.6465 123.499 17.5244 123.499 19.9902V33.0213H119.598V9.45346H123.499V12.808C124.27 11.6038 125.313 10.672 126.628 10.0126C127.971 9.35311 129.443 9.02339 131.043 9.02339Z" fill="#1A1A1A"/>
<path d="M168.449 20.3342C168.449 21.0797 168.406 21.8681 168.32 22.6996H149.546C149.688 25.022 150.474 26.8426 151.903 28.1615C153.361 29.4517 155.118 30.0968 157.176 30.0968C158.862 30.0968 160.262 29.7098 161.376 28.9356C162.519 28.1328 163.32 27.072 163.777 25.7531H167.978C167.349 28.0181 166.091 29.8675 164.205 31.301C162.319 32.7059 159.976 33.4084 157.176 33.4084C154.947 33.4084 152.946 32.9066 151.174 31.9031C149.431 30.8996 148.06 29.4804 147.059 27.6454C146.059 25.7818 145.559 23.6314 145.559 21.1944C145.559 18.7573 146.045 16.6213 147.017 14.7863C147.988 12.9514 149.346 11.5465 151.089 10.5716C152.86 9.56815 154.889 9.0664 157.176 9.0664C159.405 9.0664 161.376 9.55381 163.091 10.5286C164.806 11.5035 166.12 12.851 167.035 14.5713C167.978 16.2629 168.449 18.1839 168.449 20.3342ZM164.42 19.5171C164.42 18.0262 164.091 16.7503 163.434 15.6895C162.777 14.6 161.876 13.7828 160.733 13.2381C159.619 12.6646 158.376 12.3779 157.004 12.3779C155.032 12.3779 153.346 13.0087 151.946 14.2702C150.574 15.5318 149.788 17.2807 149.588 19.5171H164.42Z" fill="#1A1A1A"/>
<path d="M177.499 13.2811C178.184 11.9335 179.156 10.887 180.413 10.1416C181.699 9.39612 183.257 9.02339 185.086 9.02339V13.066H184.057C179.685 13.066 177.499 15.4458 177.499 20.2052V33.0213H173.598V9.45346H177.499V13.2811Z" fill="#1A1A1A"/>
<path d="M52.4772 45.1714V75.1473H48.5765V45.1714H52.4772Z" fill="#1A1A1A"/>
<path d="M63.026 43.3221V75.1473H59.1253V43.3221H63.026Z" fill="#1A1A1A"/>
<path d="M90.5065 51.5795V75.1473H86.6058V71.6638C85.8628 72.868 84.8198 73.8141 83.4767 74.5022C82.1621 75.1617 80.7047 75.4914 79.1044 75.4914C77.2755 75.4914 75.6324 75.1186 74.175 74.3732C72.7175 73.5991 71.5602 72.4522 70.7029 70.9326C69.8742 69.4131 69.4598 67.5638 69.4598 65.3847V51.5795H73.3177V64.8687C73.3177 67.191 73.9035 68.983 75.0751 70.2445C76.2468 71.4774 77.8471 72.0938 79.876 72.0938C81.9621 72.0938 83.6053 71.4487 84.8055 70.1585C86.0057 68.8683 86.6058 66.9903 86.6058 64.5246V51.5795H90.5065Z" fill="#1A1A1A"/>
<path d="M105.409 75.5344C103.608 75.5344 101.994 75.2333 100.565 74.6312C99.1359 74.0005 98.0071 73.1403 97.1784 72.0508C96.3497 70.9326 95.8925 69.6568 95.8067 68.2232H99.8361C99.9504 69.3987 100.493 70.3592 101.465 71.1047C102.465 71.8501 103.765 72.2228 105.366 72.2228C106.852 72.2228 108.023 71.8931 108.881 71.2337C109.738 70.5742 110.167 69.7428 110.167 68.7393C110.167 67.7071 109.709 66.9473 108.795 66.4599C107.88 65.9438 106.466 65.4421 104.551 64.9547C102.808 64.4959 101.379 64.0372 100.265 63.5784C99.1788 63.091 98.2358 62.3886 97.4356 61.4711C96.664 60.5249 96.2783 59.2921 96.2783 57.7725C96.2783 56.5683 96.6355 55.4645 97.3499 54.461C98.0643 53.4575 99.0788 52.669 100.393 52.0956C101.708 51.4935 103.208 51.1924 104.894 51.1924C107.495 51.1924 109.595 51.8519 111.195 53.1707C112.796 54.4896 113.653 56.2959 113.767 58.5896H109.866C109.781 57.3568 109.281 56.3676 108.366 55.6221C107.48 54.8767 106.28 54.504 104.766 54.504C103.365 54.504 102.251 54.805 101.422 55.4071C100.593 56.0092 100.179 56.7977 100.179 57.7725C100.179 58.5466 100.422 59.1917 100.908 59.7078C101.422 60.1952 102.051 60.5966 102.794 60.912C103.565 61.1987 104.623 61.5284 105.966 61.9012C107.652 62.3599 109.023 62.8186 110.081 63.2774C111.138 63.7075 112.038 64.3669 112.781 65.2557C113.553 66.1445 113.953 67.3057 113.982 68.7393C113.982 70.0295 113.624 71.1907 112.91 72.2228C112.195 73.255 111.181 74.0721 109.866 74.6742C108.581 75.2477 107.095 75.5344 105.409 75.5344Z" fill="#1A1A1A"/>
<path d="M124.246 54.805V68.6963C124.246 69.8431 124.489 70.6603 124.975 71.1477C125.461 71.6064 126.304 71.8358 127.504 71.8358H130.376V75.1473H126.861C124.689 75.1473 123.06 74.6456 121.974 73.6421C120.888 72.6386 120.345 70.99 120.345 68.6963V54.805H117.302V51.5795H120.345V45.6445H124.246V51.5795H130.376V54.805H124.246Z" fill="#1A1A1A"/>
<path d="M139.003 55.4071C139.689 54.0596 140.66 53.0131 141.917 52.2676C143.203 51.5221 144.761 51.1494 146.59 51.1494V55.1921H145.561C141.189 55.1921 139.003 57.5718 139.003 62.3312V75.1473H135.102V51.5795H139.003V55.4071Z" fill="#1A1A1A"/>
<path d="M149.635 63.2774C149.635 60.869 150.121 58.7617 151.093 56.9554C152.064 55.1204 153.393 53.7012 155.079 52.6977C156.794 51.6942 158.694 51.1924 160.78 51.1924C162.838 51.1924 164.624 51.6368 166.138 52.5256C167.653 53.4145 168.782 54.5326 169.525 55.8802V51.5795H173.468V75.1473H169.525V70.7606C168.753 72.1368 167.596 73.2837 166.053 74.2012C164.538 75.09 162.766 75.5344 160.737 75.5344C158.651 75.5344 156.765 75.0183 155.079 73.9861C153.393 72.954 152.064 71.5061 151.093 69.6424C150.121 67.7788 149.635 65.6571 149.635 63.2774ZM169.525 63.3204C169.525 61.5428 169.167 59.9945 168.453 58.6756C167.739 57.3568 166.767 56.3533 165.538 55.6652C164.338 54.9484 163.009 54.59 161.552 54.59C160.094 54.59 158.765 54.934 157.565 55.6221C156.365 56.3103 155.408 57.3138 154.693 58.6326C153.979 59.9515 153.622 61.4998 153.622 63.2774C153.622 65.0837 153.979 66.6606 154.693 68.0082C155.408 69.327 156.365 70.3449 157.565 71.0617C158.765 71.7498 160.094 72.0938 161.552 72.0938C163.009 72.0938 164.338 71.7498 165.538 71.0617C166.767 70.3449 167.739 69.327 168.453 68.0082C169.167 66.6606 169.525 65.098 169.525 63.3204Z" fill="#1A1A1A"/>
<path d="M178.603 63.2774C178.603 60.869 179.088 58.7617 180.06 56.9554C181.032 55.1204 182.36 53.7012 184.046 52.6977C185.761 51.6942 187.676 51.1924 189.79 51.1924C191.619 51.1924 193.32 51.6225 194.891 52.4826C196.463 53.3141 197.663 54.4179 198.492 55.7942V43.3221H202.436V75.1473H198.492V70.7176C197.72 72.1225 196.577 73.2837 195.063 74.2012C193.548 75.09 191.776 75.5344 189.748 75.5344C187.661 75.5344 185.761 75.0183 184.046 73.9861C182.36 72.954 181.032 71.5061 180.06 69.6424C179.088 67.7788 178.603 65.6571 178.603 63.2774ZM198.492 63.3204C198.492 61.5428 198.135 59.9945 197.42 58.6756C196.706 57.3568 195.734 56.3533 194.506 55.6652C193.305 54.9484 191.977 54.59 190.519 54.59C189.062 54.59 187.733 54.934 186.533 55.6221C185.332 56.3103 184.375 57.3138 183.661 58.6326C182.946 59.9515 182.589 61.4998 182.589 63.2774C182.589 65.0837 182.946 66.6606 183.661 68.0082C184.375 69.327 185.332 70.3449 186.533 71.0617C187.733 71.7498 189.062 72.0938 190.519 72.0938C191.977 72.0938 193.305 71.7498 194.506 71.0617C195.734 70.3449 196.706 69.327 197.42 68.0082C198.135 66.6606 198.492 65.098 198.492 63.3204Z" fill="#1A1A1A"/>
<path d="M219.272 75.5344C217.072 75.5344 215.071 75.0326 213.271 74.0291C211.499 73.0256 210.099 71.6064 209.07 69.7714C208.07 67.9078 207.57 65.7575 207.57 63.3204C207.57 60.912 208.084 58.7903 209.113 56.9554C210.171 55.0917 211.599 53.6725 213.4 52.6977C215.2 51.6942 217.215 51.1924 219.444 51.1924C221.673 51.1924 223.687 51.6942 225.488 52.6977C227.288 53.6725 228.702 55.0774 229.731 56.9124C230.789 58.7473 231.317 60.8833 231.317 63.3204C231.317 65.7575 230.774 67.9078 229.688 69.7714C228.631 71.6064 227.188 73.0256 225.359 74.0291C223.53 75.0326 221.501 75.5344 219.272 75.5344ZM219.272 72.0938C220.672 72.0938 221.987 71.7641 223.216 71.1047C224.445 70.4452 225.43 69.4561 226.173 68.1372C226.945 66.8183 227.331 65.2127 227.331 63.3204C227.331 61.4281 226.959 59.8225 226.216 58.5036C225.473 57.1847 224.502 56.2099 223.301 55.5791C222.101 54.9197 220.801 54.59 219.401 54.59C217.972 54.59 216.657 54.9197 215.457 55.5791C214.286 56.2099 213.343 57.1847 212.628 58.5036C211.914 59.8225 211.556 61.4281 211.556 63.3204C211.556 65.2414 211.899 66.8613 212.585 68.1802C213.3 69.4991 214.243 70.4882 215.414 71.1477C216.586 71.7784 217.872 72.0938 219.272 72.0938Z" fill="#1A1A1A"/>
<path d="M240.347 55.4071C241.033 54.0596 242.004 53.0131 243.262 52.2676C244.547 51.5221 246.105 51.1494 247.934 51.1494V55.1921H246.905C242.533 55.1921 240.347 57.5718 240.347 62.3312V75.1473H236.446V51.5795H240.347V55.4071Z" fill="#1A1A1A"/>
<path d="M250.979 63.2774C250.979 60.869 251.465 58.7617 252.437 56.9554C253.408 55.1204 254.737 53.7012 256.423 52.6977C258.138 51.6942 260.038 51.1924 262.124 51.1924C264.182 51.1924 265.968 51.6368 267.482 52.5256C268.997 53.4145 270.126 54.5326 270.869 55.8802V51.5795H274.812V75.1473H270.869V70.7606C270.097 72.1368 268.94 73.2837 267.397 74.2012C265.882 75.09 264.11 75.5344 262.081 75.5344C259.995 75.5344 258.109 75.0183 256.423 73.9861C254.737 72.954 253.408 71.5061 252.437 69.6424C251.465 67.7788 250.979 65.6571 250.979 63.2774ZM270.869 63.3204C270.869 61.5428 270.511 59.9945 269.797 58.6756C269.083 57.3568 268.111 56.3533 266.882 55.6652C265.682 54.9484 264.353 54.59 262.896 54.59C261.438 54.59 260.11 54.934 258.909 55.6221C257.709 56.3103 256.752 57.3138 256.037 58.6326C255.323 59.9515 254.966 61.4998 254.966 63.2774C254.966 65.0837 255.323 66.6606 256.037 68.0082C256.752 69.327 257.709 70.3449 258.909 71.0617C260.11 71.7498 261.438 72.0938 262.896 72.0938C264.353 72.0938 265.682 71.7498 266.882 71.0617C268.111 70.3449 269.083 69.327 269.797 68.0082C270.511 66.6606 270.869 65.098 270.869 63.3204Z" fill="#1A1A1A"/>
</svg>
