<svg width="312" height="85" viewBox="0 0 312 85" fill="none" xmlns="http://www.w3.org/2000/svg">
<path d="M311.385 80.3474V82.9305H283.066V80.3474C285.949 80.3474 288.215 78.0744 288.215 75.1814V71.4619C288.215 71.4619 279.77 84.1703 267.104 84.1703C256.497 84.1703 254.746 76.5246 254.746 71.2552V35.2996C254.746 32.8199 252.481 30.9602 250.009 31.2701L249.597 28.7904L272.768 25.0709V67.949C272.768 70.532 275.239 72.9084 278.637 72.9084C283.683 72.9084 287.803 66.8124 288.215 66.2958V35.2996C288.215 32.8199 285.949 30.9602 283.478 31.2701L283.066 28.7904L306.236 25.0709V75.1814C306.236 78.0744 308.502 80.3474 311.385 80.3474Z" fill="#1A1A1A"/>
<path d="M218.914 24.9675C239.201 24.9675 248.984 39.4324 248.984 54.4139C248.984 69.3954 238.995 84.067 218.708 84.067C198.318 84.067 188.741 69.6021 188.741 54.6206C188.741 39.6391 198.524 24.9675 218.914 24.9675ZM218.811 78.9009C228.285 78.9009 230.963 65.7792 230.963 54.2073C230.963 42.5321 228.285 30.1336 218.811 30.1336C209.44 30.1336 206.763 42.4287 206.763 54.0007C206.763 65.6759 209.337 78.9009 218.811 78.9009Z" fill="#1A1A1A"/>
<path d="M184.445 26.414C191.55 30.5469 190.006 43.2553 181.87 43.2553C176.927 43.2553 174.147 38.9159 175.692 33.5432C177.648 26.2074 167.556 35.403 161.686 43.6686V75.1814C161.686 78.0744 163.952 80.3475 166.835 80.3475V82.9305H138.516V80.3475C141.399 80.3475 143.665 78.0744 143.665 75.1814V35.9196C143.665 33.4399 141.399 31.5801 138.928 31.89L138.516 29.4104L161.686 25.6908V35.9196C167.762 28.2738 176.309 21.6613 184.445 26.414Z" fill="#1A1A1A"/>
<path d="M113.433 24.9675C128.365 24.9675 138.148 36.4361 137.736 51.9342H102.723C102.723 65.2626 109.417 74.9747 120.333 74.5615C126.1 74.3548 131.764 72.2884 135.265 65.8825L136.192 66.2958C132.381 77.2478 123.01 84.067 112.918 84.067C96.5445 84.067 84.5988 71.7718 84.5988 55.1372C84.5988 39.1225 96.3385 24.9675 113.433 24.9675ZM103.032 47.8014H123.01C123.01 37.1594 118.582 30.2369 113.021 30.2369C107.46 30.2369 103.032 37.1594 103.032 47.8014Z" fill="#1A1A1A"/>
<path d="M59.8732 36.4362L75.4232 70.0154C77.6887 75.698 84.0735 80.3475 89.7374 80.3475V82.9305H49.5753V80.3475C54.6213 79.8309 56.8868 75.3881 54.8272 70.0154L41.3369 40.879L31.5538 55.1372V70.0154C31.5538 75.698 36.1879 80.3475 41.8518 80.3475V82.9305H0.659912V80.3475C6.3238 80.3475 10.9579 75.698 10.9579 70.0154V13.189C10.9579 7.50637 6.3238 2.85694 0.659912 2.85694V0.273926H41.8518V2.85694C36.1879 2.85694 31.5538 7.50637 31.5538 13.189V46.1483L54.3123 13.189C58.2256 7.50637 56.7839 2.85694 51.12 2.85694V0.273926H77.8947V2.85694C72.1278 2.85694 64.4043 7.50637 60.4911 13.189L53.9004 22.6945L59.8732 36.4362Z" fill="#1A1A1A"/>
<path d="M220.818 52.7031C220.149 52.071 219.047 49.5032 219.047 49.5032C219.047 49.5032 217.944 52.071 217.314 52.7031C216.684 53.3747 214.125 54.4413 214.125 54.4413C214.125 54.4413 216.684 55.5474 217.314 56.219C217.944 56.8511 219.047 59.3794 219.047 59.3794C219.047 59.3794 220.149 56.8511 220.818 56.219C221.448 55.5474 223.968 54.4413 223.968 54.4413C223.968 54.4413 221.448 53.3747 220.818 52.7031Z" fill="#1A1A1A"/>
</svg>
